# xmcd
#
# Track frame offsets: 
#        150
#        13329
#        25934
#        39104
#        49344
#        60892
#        69950
#        81644
#        93429
#        103286
#        113885
#        126851
#        139163
#        151554
#        163541
#        175690
#        199122
#        225977
#        238372
#        250983
#        261803
#        272829
#        285226
#
# Disc length: 3951 seconds
#
# Revision: 0
# Processed by: cddbd v1.5.2PL0 Copyright (c) Steve Scherf et al.
# Submitted via: ExactAudioCopy v1.0b3
#
DISCID=380f6d17
DTITLE=Various Artist - The Northern Soul Of Philadephia Volume 3
DYEAR=1900
DGENRE=Soul
TTITLE0=The Theives - Run To My Lovin' Arms
TTITLE1=The Thieves - Faith In A Young Mans Heart
TTITLE2=The Universals - New Lease On Life
TTITLE3=The Universals - Without Friends
TTITLE4=Alfreda Brockington - Spilt Milk
TTITLE5=James Bounty - Prove Yourself A Lady
TTITLE6=James Bounty - Actions Speak Louder Than Words
TTITLE7=James Bounty - Rags To Riches
TTITLE8=The Thieves - I'm Not The One
TTITLE9=The Thieves - Why Did You Do It Baby
TTITLE10=The Brothers Two - Hoping 
TTITLE11=The Brothers Two - My Sweetness
TTITLE12=The Esko Affair - Salt and Pepper
TTITLE13=Elegant Shades - Spilt Milk 
TTITLE14=Brothers Guiding Light - Getting Together
TTITLE15=David Morris - Jack In The Box
TTITLE16=Davis Morris - Midnight Lady
TTITLE17=David Morris - Gotta Love Somebody Else
TTITLE18=Stella and The Gazelles - I'm Not In Love With You Anymore
TTITLE19=The Informers - Hard Way To Go
TTITLE20=The Assasins - Nicer Girl
TTITLE21=Brothers Guiding Light - Getting Together
TTITLE22=Davis Morris - Snap, Crackle. Pop
EXTD=
EXTT0=
EXTT1=
EXTT2=
EXTT3=
EXTT4=
EXTT5=
EXTT6=
EXTT7=
EXTT8=
EXTT9=
EXTT10=
EXTT11=
EXTT12=
EXTT13=
EXTT14=
EXTT15=
EXTT16=
EXTT17=
EXTT18=
EXTT19=
EXTT20=
EXTT21=
EXTT22=
PLAYORDER=
